name D:\Dropbox\PhD\Testing MOtoNMS\ElaboratedData\Subject8\30-07-18\dynamicElaborations\right\PassiveA1\PassiveA1.mot
datacolumns 19
datarows 11
range 1.37667000000000 1.39333000000000
endheader
time	    ground_force1_vx	    ground_force1_vy	    ground_force1_vz	    ground_force1_px	    ground_force1_py	    ground_force1_pz	    ground_force2_vx	    ground_force2_vy	    ground_force2_vz	    ground_force2_px	    ground_force2_py	    ground_force2_pz	    ground_torque1_x	    ground_torque1_y	    ground_torque1_z	    ground_torque2_x	    ground_torque2_y	    ground_torque2_z	
1.37667000000000	13.33947372000000	512.31033634999994	54.23267777000000	0.03279117000000	0.00000000000000	-0.19816185000000	-0.00000000000000	0.00000000000000	-0.00000000000000	-0.00000000000000	0.00000000000000	-0.00000000000000	0.00000000000000	-0.30705837000000	-0.00000000000000	-0.00000000000000	0.00000000000000	-0.00000000000000	
1.37833000000000	13.05690930000000	512.26548265999998	53.96958525000000	0.03371943000000	0.00000000000000	-0.19812499000000	-0.00000000000000	0.00000000000000	-0.00000000000000	-0.00000000000000	0.00000000000000	-0.00000000000000	0.00000000000000	-0.29386478000000	-0.00000000000000	-0.00000000000000	0.00000000000000	-0.00000000000000	
1.38000000000000	12.77166484000000	512.25891962000003	53.70910745000000	0.03464306000000	0.00000000000000	-0.19808777000000	-0.00000000000000	0.00000000000000	-0.00000000000000	-0.00000000000000	0.00000000000000	-0.00000000000000	0.00000000000000	-0.28210861000000	-0.00000000000000	-0.00000000000000	0.00000000000000	-0.00000000000000	
1.38167000000000	12.48377294000000	512.29061479999996	53.45186908000000	0.03556166000000	0.00000000000000	-0.19805029000000	-0.00000000000000	0.00000000000000	-0.00000000000000	-0.00000000000000	0.00000000000000	-0.00000000000000	0.00000000000000	-0.27179210000000	-0.00000000000000	-0.00000000000000	0.00000000000000	-0.00000000000000	
1.38333000000000	12.19326987000000	512.36042302999999	53.19847660000000	0.03647489000000	0.00000000000000	-0.19801262000000	-0.00000000000000	0.00000000000000	-0.00000000000000	-0.00000000000000	0.00000000000000	-0.00000000000000	0.00000000000000	-0.26291197000000	-0.00000000000000	-0.00000000000000	0.00000000000000	-0.00000000000000	
1.38500000000000	11.90019509000000	512.46808868999995	52.94951663000000	0.03738243000000	0.00000000000000	-0.19797484000000	-0.00000000000000	0.00000000000000	-0.00000000000000	-0.00000000000000	0.00000000000000	-0.00000000000000	0.00000000000000	-0.25545944000000	-0.00000000000000	-0.00000000000000	0.00000000000000	-0.00000000000000	
1.38667000000000	11.60459077000000	512.61324821999995	52.70555447000000	0.03828401000000	0.00000000000000	-0.19793705000000	-0.00000000000000	0.00000000000000	-0.00000000000000	-0.00000000000000	0.00000000000000	-0.00000000000000	0.00000000000000	-0.24942040000000	-0.00000000000000	-0.00000000000000	0.00000000000000	-0.00000000000000	
1.38833000000000	11.30650137000000	512.79543291000005	52.46713265000000	0.03917941000000	0.00000000000000	-0.19789930000000	-0.00000000000000	0.00000000000000	-0.00000000000000	-0.00000000000000	0.00000000000000	-0.00000000000000	0.00000000000000	-0.24477552000000	-0.00000000000000	-0.00000000000000	0.00000000000000	-0.00000000000000	
1.39000000000000	11.00597325000000	513.01407185999994	52.23476950000000	0.04006844000000	0.00000000000000	-0.19786170000000	-0.00000000000000	0.00000000000000	-0.00000000000000	-0.00000000000000	0.00000000000000	-0.00000000000000	0.00000000000000	-0.24150042000000	-0.00000000000000	-0.00000000000000	0.00000000000000	-0.00000000000000	
1.39167000000000	10.70305426000000	513.26849513000002	52.00895783000000	0.04095094000000	0.00000000000000	-0.19782430000000	-0.00000000000000	0.00000000000000	-0.00000000000000	-0.00000000000000	0.00000000000000	-0.00000000000000	0.00000000000000	-0.23956587000000	-0.00000000000000	-0.00000000000000	0.00000000000000	-0.00000000000000	
1.39333000000000	10.39779344000000	513.55793706999998	51.79016365000000	0.04182684000000	0.00000000000000	-0.19778718000000	-0.00000000000000	0.00000000000000	-0.00000000000000	-0.00000000000000	0.00000000000000	-0.00000000000000	0.00000000000000	-0.23893798000000	-0.00000000000000	-0.00000000000000	0.00000000000000	-0.00000000000000	
